<svg id="evoksNrgGe81" xmlns="http://www.w3.org/2000/svg" xmlns:xlink="http://www.w3.org/1999/xlink" viewBox="0 0 1080 1920" shape-rendering="geometricPrecision" text-rendering="geometricPrecision"><rect width="724.54628" height="1172.195893" rx="122" ry="122" transform="matrix(1.267857 0 0 1.430567 80.689464 121.547619)" fill="#ffdb4e" stroke-width="0"/><g transform="translate(38.176951 0)"><ellipse rx="24.525532" ry="24.525" transform="translate(193.703951 1595.909827)" fill="#ee822d" stroke-width="0"/><ellipse rx="24.525532" ry="24.525" transform="translate(218.229483 1654.380695)" fill="#d9bc4a" stroke-width="0"/></g><g transform="translate(-6.040296-1.849296)"><g><g transform="matrix(1.030498-.633364 0.596153 0.969954-891.751862 153.081906)"><g mask="url(#evoksNrgGe816)"><g><ellipse rx="104.937666" ry="101.895995" transform="translate(356.863795 1404.20637)" fill="#313131" stroke-width="0"/></g><mask id="evoksNrgGe816" mask-type="luminance" x="-150%" y="-150%" height="400%" width="400%"><rect width="170.257337" height="352.532839" rx="0" ry="0" transform="matrix(.618333 0 0 1 251.926129 1240.070019)" fill="#d2dbed" stroke-width="0"/></mask></g><ellipse rx="13.690737" ry="14.543578" transform="translate(283.633377 1375.35088)" fill="#a7a7a7" stroke-width="0"/></g><ellipse rx="36.786698" ry="36.786699" transform="translate(278.567086 1341.742683)" fill="#f5ecc9" stroke-width="0"/><ellipse rx="14.543579" ry="14.543578" transform="translate(227.576602 1251.981804)" fill="#a7a7a7" stroke-width="0"/></g></g><rect width="733.491491" height="918.516371" rx="60" ry="60" transform="matrix(1 0 0 1.013925 173.254255 210.201292)" fill="#313131" stroke="#2c2c2c" stroke-width="30"/><polygon points="0,-92.532392 88.003535,-28.594082 54.389175,74.860278 -88.003535,-28.594082 0,-92.532392" transform="matrix(-.80057 0.599239-.599239-.80057 536.982582 182.584205)" fill="#313131" stroke="#2c2c2c" stroke-width="15"/><ellipse rx="13.664934" ry="13.664935" transform="translate(538.610787 201.973855)" fill="#d2dbed" stroke-width="0"/><g transform="translate(477.017836-1.849296)"><g transform="matrix(-1 0 0 1 606.243995 0)"><g transform="matrix(1.030498-.633364 0.596153 0.969954-891.751862 153.081906)"><g mask="url(#evoksNrgGe830)"><g><ellipse rx="104.937666" ry="101.895995" transform="translate(356.863795 1404.20637)" fill="#313131" stroke-width="0"/></g><mask id="evoksNrgGe830" mask-type="luminance" x="-150%" y="-150%" height="400%" width="400%"><rect width="170.257337" height="352.532839" rx="0" ry="0" transform="matrix(.618333 0 0 1 251.926129 1240.070019)" fill="#d2dbed" stroke-width="0"/></mask></g><ellipse rx="13.690737" ry="14.543578" transform="translate(283.633377 1375.35088)" fill="#a7a7a7" stroke-width="0"/></g><ellipse rx="36.786698" ry="36.786699" transform="translate(278.567086 1341.742683)" fill="#f5ecc9" stroke-width="0"/><ellipse rx="14.543579" ry="14.543578" transform="translate(227.576602 1251.981804)" fill="#a7a7a7" stroke-width="0"/></g></g><rect width="95.945608" height="761.568257" rx="0" ry="0" transform="matrix(1.014634 0 0 0.95708 80.689464 281.920216)" fill="#2c2c2c" stroke-width="0"/><rect width="95.945608" height="761.568257" rx="0" ry="0" transform="matrix(1.014634 0 0 0.95708 901.96086 282.286389)" fill="#2c2c2c" stroke-width="0"/><g transform="matrix(-1 0 0 1 1064.788123-4.710437)"><ellipse rx="24.525532" ry="24.525" transform="translate(193.703951 1595.909827)" fill="#ee822d" stroke-width="0"/><ellipse rx="24.525532" ry="24.525" transform="translate(218.229483 1654.380695)" fill="#d9bc4a" stroke-width="0"/></g><polygon points="109.405864,-35.54812 67.616543,93.066187 -67.616543,93.066187 -109.405864,-35.54812" transform="matrix(1.102383 0 0 0.373297 552.275721 1173.194389)" fill="#dec04b" stroke-width="0"/><line x1="-357.556568" y1="0" x2="357.556568" y2="0" transform="translate(540.000001 1452.521835)" fill="none" stroke="rgba(47,47,47,0.28)" stroke-width="3"/></svg>
